:SAMPLES-PER-SECOND 30
:FULLY-SPECIFIED
:DEGREES
269
root  34.71239646 36.51956273 -14.59485903 9.242425919 -5.227096558 4.192266941
lowerback  -8.385789871 -0.4949149787 -1.663429499
upperback  -3.702850103 0.05825459957 -4.624519825
thorax  0.8750590086 0.2325640023 -3.844500065
lowerneck  -6.401659966 -14.86079979 -9.805399895
upperneck  10.5156002 -20.35180092 11.18939972
head  6.389770031 -9.559029579 3.197020054
lclavicle  0 -4.497500157e-015 -2.743230041e-014
lhumerus  -47.74229813 31.00510025 60.96969986
lradius  0.02197008021 -6.507048965e-006 29.26250267
lwrist  4.824992743e-007 -3.790274832e-007 -30.45030022
lhand  -4.419541843e-031 -36.96720123 -10.38029957
lfingers  90 7.125020027 -90
lthumb  94.78460285 -25.2192499 101.1139209
rclavicle  0 -4.497500157e-015 -2.743230041e-014
rhumerus  -7.66656971 -42.06309891 -17.10250282
rradius  -5.16745672e-007 2.214343908e-008 86.40059662
rwrist  -2.867388866e-005 0.01324805897 -179.4949951
rhand  -1.767612612e-031 2.759769917 -5.35367012
rfingers  -90 -7.125020027 -90
rthumb  -84.37934459 -10.33840874 -61.26012046
rfemur  -12.59881973 15.26923466 12.43418694
rtibia  -1.296174884 -1.667274237 20.69453239
rfoot  0.4969142377 -22.64762306 -35.00376892
rtoes  3.789500055 19.65216168 -101.141769
lfemur  -6.750388622 -17.33127022 -21.84578705
ltibia  4.525177479 -1.253975749 12.1268692
lfoot  1.09501636 -21.70611954 37.59173203
ltoes  -8.627379233 -18.1126513 -116.0141752
270
root  34.7092636 36.52207983 -14.59934805 9.189883232 -5.207143784 4.161901474
lowerback  -8.430621147 -0.5138430595 -1.684120178
upperback  -3.698990107 0.03684049845 -4.612150192
thorax  0.9026920199 0.2222959995 -3.822020054
lowerneck  -6.492080212 -14.81219959 -9.765080452
upperneck  10.63949966 -20.28610229 11.13840008
head  6.427480221 -9.521419525 3.175519943
lclavicle  0 -4.497500157e-015 -2.743230041e-014
lhumerus  -47.6814003 31.02420044 60.98730087
lradius  0.02107436582 -6.507048965e-006 29.22299767
lwrist  4.824992743e-007 -3.790274832e-007 -30.42939949
lhand  -4.421278997e-031 -36.99710083 -10.40019989
lfingers  90 7.125020027 -90
lthumb  94.80267051 -25.23774187 101.1475836
rclavicle  0 -4.497500157e-015 -2.743230041e-014
rhumerus  -9.094229698 -41.90599823 -16.65500259
rradius  -5.16745672e-007 2.214343908e-008 87.77390289
rwrist  -2.867388866e-005 0.01289466117 179.9250031
rhand  -1.767943699e-031 2.974050045 -5.416100025
rfingers  -90 -7.125020027 -90
rthumb  -84.35617278 -10.29343166 -61.05545454
rfemur  -12.53591347 15.30441093 12.49049282
rtibia  -1.29855597 -1.603749275 20.681036
rfoot  0.4838443696 -22.55884361 -35.09854889
rtoes  3.805782822 19.64913484 -101.1901887
lfemur  -6.748153687 -17.31065369 -21.7911911
ltibia  4.475530148 -1.238096595 12.20006752
lfoot  1.086060643 -21.76996231 37.56842804
ltoes  -8.64716539 -18.10346021 -116.0778352
271
root  34.70651221 36.52146407 -14.60371243 9.153436661 -5.186932564 4.140300751
lowerback  -8.459719658 -0.5287720561 -1.697150111
upperback  -3.690690041 0.01875180006 -4.600500107
thorax  0.9264140129 0.2132280022 -3.804250002
lowerneck  -6.569280148 -14.76710033 -9.738690376
upperneck  10.76760006 -20.22940254 11.12390041
head  6.470910072 -9.485910416 3.16624999
lclavicle  0 -4.497500157e-015 -2.743230041e-014
lhumerus  -47.64099884 31.03039932 61.0245018
lradius  0.02015657723 -6.507048965e-006 29.22809982
lwrist  4.824992743e-007 -3.790274832e-007 -30.39209747
lhand  -4.420616235e-031 -36.9856987 -10.42650032
lfingers  90 7.125020027 -90
lthumb  94.80301312 -25.26397725 101.1378152
rclavicle  0 -4.497500157e-015 -2.743230041e-014
rhumerus  -10.57409859 -41.65779495 -16.17200089
rradius  -5.16745672e-007 2.214343908e-008 89.25489807
rwrist  -2.867388866e-005 0.0125401197 179.5469971
rhand  -1.768131753e-031 3.089119911 -4.974460125
rfingers  -90 -7.125020027 -90
rthumb  -84.10892776 -10.68472188 -60.90292682
rfemur  -12.49986649 15.36116505 12.53827477
rtibia  -1.299923658 -1.551067472 20.68686295
rfoot  0.4785058796 -22.48373413 -35.15948486
rtoes  3.786257412 19.65276285 -101.1321273
lfemur  -6.724521637 -17.28696251 -21.75186729
ltibia  4.459427357 -1.214351296 12.20492554
lfoot  1.080058813 -21.8103466 37.56982422
ltoes  -8.647391629 -18.10335497 -116.0785632
272
root  34.70549696 36.52239221 -14.60834413 9.122180939 -5.176530361 4.126695633
lowerback  -8.469470024 -0.5391599536 -1.73100996
upperback  -3.687319994 0.006706660148 -4.580900192
thorax  0.9347879887 0.2072129995 -3.765710115
lowerneck  -6.606719971 -14.73250008 -9.745030403
upperneck  10.85289955 -20.19000053 11.16779995
head  6.50579977 -9.458519936 3.180340052
lclavicle  0 -4.497500157e-015 -2.743230041e-014
lhumerus  -47.60559845 30.98810005 61.09600067
lradius  0.019220341 -6.507048965e-006 29.26860237
lwrist  4.824992743e-007 -3.790274832e-007 -30.22190094
lhand  -4.420796467e-031 -36.98880005 -10.47949982
lfingers  90 7.125020027 -90
lthumb  94.81579573 -25.31592275 101.1459791
rclavicle  0 -4.497500157e-015 -2.743230041e-014
rhumerus  -12.10280132 -41.37199783 -15.67929935
rradius  -5.16745672e-007 2.214343908e-008 90.64230347
rwrist  -2.867388866e-005 0.01218404993 179.1790009
rhand  -0 2.977999926 -4.927360058
rfingers  -90 -7.125020027 -90
rthumb  -84.11441704 -10.72123274 -61.00774743
rfemur  -12.48494244 15.41775417 12.56528091
rtibia  -1.308417916 -1.51688838 20.70983887
rfoot  0.4629665911 -22.44037628 -35.20722198
rtoes  3.775744678 19.65470817 -101.1008705
lfemur  -6.662849426 -17.31258392 -21.75847816
ltibia  4.468977451 -1.239630938 12.16278267
lfoot  1.039259434 -21.72355843 37.53963852
ltoes  -8.665291673 -18.09501701 -116.1361821
273
root  34.69994913 36.52233815 -14.61215582 9.096405983 -5.149201393 4.167892933
lowerback  -8.448719978 -0.5454909205 -1.66222012
upperback  -3.694920063 -0.0121023003 -4.554540157
thorax  0.9142519832 0.1958850026 -3.778670073
lowerneck  -6.621510029 -14.68949986 -9.752719879
upperneck  10.91839981 -20.13730049 11.20079994
head  6.528079987 -9.427459717 3.195450068
lclavicle  0 -4.497500157e-015 -2.743230041e-014
lhumerus  -47.6446991 30.56749916 61.43019867
lradius  0.01826928556 -6.507048965e-006 29.63899994
lwrist  4.824992743e-007 -3.790274832e-007 -29.68499947
lhand  -4.420465287e-031 -36.98310089 -10.44009972
lfingers  90 7.125020027 -90
lthumb  94.8047209 -25.27743256 101.1362918
rclavicle  0 -4.497500157e-015 -2.743230041e-014
rhumerus  -13.58789921 -41.10860062 -15.25
rradius  -5.16745672e-007 2.214343908e-008 92.01290131
rwrist  -2.867388866e-005 0.01182607468 178.8059998
rhand  -1.767818571e-031 2.894939899 -4.727600098
rfingers  -90 -7.125020027 -90
rthumb  -84.03753935 -10.89259298 -61.07081049
rfemur  -12.50563049 15.4282608 12.55566883
rtibia  -1.344617128 -1.525355577 20.80839157
rfoot  0.3987276852 -22.47462654 -35.27441788
rtoes  3.796305749 19.6508982 -101.162006
lfemur  -6.49301672 -17.34830666 -21.86963463
ltibia  4.593301773 -1.254704952 11.91816902
lfoot  1.002539515 -21.57896423 37.53487396
ltoes  -8.605122327 -18.12295863 -115.9426031
